<?xml version="1.0" encoding="UTF-8"?>
<svg id="Layer_1" xmlns="http://www.w3.org/2000/svg" version="1.1" viewBox="0 0 24 24">
  <!-- Generator: Adobe Illustrator 29.2.1, SVG Export Plug-In . SVG Version: 2.1.0 Build 116)  -->
  <defs>
    <style>
      .st0 {
        fill: none;
      }

      .st1 {
        fill: #dbdbdb;
      }
    </style>
  </defs>
  <path class="st0" d="M0,0h24v24H0V0Z"/>
  <path class="st1" d="M17,6H7c-3.3,0-6,2.7-6,6s2.7,6,6,6h10c3.3,0,6-2.7,6-6s-2.7-6-6-6ZM17,16H7c-2.2,0-4-1.8-4-4s1.8-4,4-4h10c2.2,0,4,1.8,4,4s-1.8,4-4,4ZM7,9c-1.7,0-3,1.3-3,3s1.3,3,3,3,3-1.3,3-3-1.3-3-3-3Z"/>
</svg>